# xmcd
#
# Track frame offsets:
#	150
#	14340
#	27495
#	42410
#	55245
#	69682
#	79263
#	93223
#	106838
#	117638
#	128843
#	140358
#	152796
#	165251
#	177788
#	190434
#	203352
#	216312
#	229474
#	242831
#	256416
#	270734
#	280754
#	290444
#	304954
#
# Disc length: 4219 seconds
#
# Revision: 1
# Processed by: cddbd v1.5.2PL0 Copyright (c) Steve Scherf et al.
# Submitted via: audiograbber 1.83.01
#
DISCID=70107919
DTITLE=TRIO NORDESTINO - GRANDES SUCESSOS - VOL. 1
DYEAR=1900
DGENRE=FORRÓ
TTITLE0=FORRÓ NO CLARO
TTITLE1=ALEGRIA E SORRISO
TTITLE2=FORRÓ PESADO
TTITLE3=MENINO DE COLO
TTITLE4=FORRÓ DESARMADO
TTITLE5=CHILILIQUI
TTITLE6=DOM FRANCISCO, DOM TOMÉ
TTITLE7=MENINA APIMENTADA
TTITLE8=CUIDADO COM AS COISAS
TTITLE9=FORRÓ DO BOLE-BOLE
TTITLE10=O BICHO BOM
TTITLE11=CHAP CHAP
TTITLE12=POR CAUSA DA PEPITA
TTITLE13=ESQUENTA MORENINHA
TTITLE14=ARTE CULINÁRIA
TTITLE15=NO TERREIRO DA FAZENDA
TTITLE16=AMOR DE DOIDO
TTITLE17=CHINELO DA ROSINHA
TTITLE18=PETROLINA JOAZEIRO
TTITLE19=AMOR NÃO FAZ MAL A NIMGUÉM
TTITLE20=CAPITAL DO FORRÓ
TTITLE21=NAQUELE SAO JOÃO
TTITLE22=BRINCADEIRA NA FOGUEIRA
TTITLE23=NA EMENDA
TTITLE24=NÃO LHE TROCO POR NINGUÉM
EXTD=
EXTT0=
EXTT1=
EXTT2=
EXTT3=
EXTT4=
EXTT5=
EXTT6=
EXTT7=
EXTT8=
EXTT9=
EXTT10=
EXTT11=
EXTT12=
EXTT13=
EXTT14=
EXTT15=
EXTT16=
EXTT17=
EXTT18=
EXTT19=
EXTT20=
EXTT21=
EXTT22=
EXTT23=
EXTT24=
PLAYORDER=
